<?xml version="1.0" encoding="iso-8859-1"?>
<!-- Generator: Adobe Illustrator 19.0.0, SVG Export Plug-In . SVG Version: 6.00 Build 0)  -->
<svg version="1.1" id="Layer_1" xmlns="http://www.w3.org/2000/svg" xmlns:xlink="http://www.w3.org/1999/xlink" x="0px" y="0px"
	 viewBox="0 0 512 512" style="enable-background:new 0 0 512 512;" xml:space="preserve">
<circle style="fill:#E6E6E6;" cx="256" cy="255.997" r="255.997"/>
<path style="fill:#CCCCCC;" d="M503.49,321.892C474.959,429.242,378.643,508.848,263.096,512l-162.68-162.68l231.566-176.236
	l77.242,77.242l11.35-11.35l82.759,82.759L503.49,321.892z"/>
<path style="fill:#E84F4F;" d="M376.121,217.695c31.527,0,57.064,25.537,57.064,57.064c0,9.143-2.207,17.97-5.99,25.537
	c10.088,6.306,16.867,17.498,16.867,30.109l0,0c0,19.389-15.921,35.311-35.311,35.311H149.599h-1.734c-1.104,0-2.207,0-3.31-0.158
	c-42.719-2.68-76.453-37.99-76.453-81.34c0-45.084,36.572-81.497,81.497-81.497c9.931,0,19.232,1.734,28.059,4.887
	c13.399-35.783,47.921-61.32,88.433-61.32c45.242,0,82.916,31.684,92.217,74.247C363.982,218.641,369.973,217.695,376.121,217.695z"
	/>
<path style="fill:#F7F7F8;" d="M256.002,348.059L256.002,348.059c6.778,0,12.296-5.517,12.296-12.296v-72.513l16.867,10.72
	c13.241,8.355,25.221-10.877,11.192-19.862l-33.419-21.281c-1.891-1.104-4.257-1.734-6.621-1.891l0,0h-0.315l0,0h-0.315l0,0
	c-2.364,0-4.729,0.63-6.621,1.891l-33.419,21.281c-14.03,8.986-2.049,28.216,11.192,19.862l16.867-10.72v72.513
	C243.706,342.542,249.224,348.059,256.002,348.059z"/>
<path style="fill:#F5F5F5;" d="M256.002,213.596c23.961,0,47.922,9.773,61.478,29.163c5.359,10.562,21.281,1.576,15.29-8.986
	c-15.29-26.798-46.818-39.094-76.611-39.094s-61.478,12.296-76.611,39.094c-5.99,10.561,9.773,19.389,15.29,8.986
	c13.399-19.389,37.517-29.163,61.478-29.163H256.002z"/>
</svg>
