<?xml version="1.0" encoding="iso-8859-1"?>
<!-- Generator: Adobe Illustrator 19.0.0, SVG Export Plug-In . SVG Version: 6.00 Build 0)  -->
<svg version="1.1" id="Layer_1" xmlns="http://www.w3.org/2000/svg" xmlns:xlink="http://www.w3.org/1999/xlink" x="0px" y="0px"
	 viewBox="0 0 512.005 512.005" style="enable-background:new 0 0 512.005 512.005;" xml:space="preserve">
<circle style="fill:#E84F4F;" cx="256.003" cy="256.003" r="256.003"/>
<path style="fill:#D14747;" d="M507.787,302.587c-19.106,103.854-100.795,185.744-204.549,205.101L166.338,370.786
	c-34.752-26.578-57.168-68.451-57.168-115.588c0-41.02,17.953-79.634,46.235-106.312c2.106-2.005,9.328-6.067,12.888-8.826
	c25.274-19.607,55.814-31.241,86.353-30.339c69.253,1.855,113.833,53.958,114.034,53.807l139.107,139.107V302.587z"/>
<path style="fill:#004F59;" d="M270.543,251.537l88.058,98.138c54.209-48.643,58.722-131.987,10.079-186.196l-98.187,88.058H270.543
	z"/>
<path style="fill:#FFD630;" d="M144.573,350.527c52.655,58.672,142.969,63.586,201.641,10.932L155.456,148.886
	C96.784,201.591,91.869,291.855,144.573,350.527z"/>
<path style="fill:#00CC96;" d="M168.343,140.01l88.058,98.138l98.138-88.058C305.896,95.881,222.502,91.368,168.343,140.01z"/>
<g>
</g>
<g>
</g>
<g>
</g>
<g>
</g>
<g>
</g>
<g>
</g>
<g>
</g>
<g>
</g>
<g>
</g>
<g>
</g>
<g>
</g>
<g>
</g>
<g>
</g>
<g>
</g>
<g>
</g>
</svg>
